<?xml version="1.0" standalone="no"?>
<!DOCTYPE svg PUBLIC "-//W3C//DTD SVG 1.1//EN" "http://www.w3.org/Graphics/SVG/1.1/DTD/svg11.dtd">
<svg xmlns="http://www.w3.org/2000/svg" id="logo_lockup" viewBox="0 0 587.81 114.01" width="587.8099975585938" height="114.01000213623047"><defs><style>.cls-1{fill:#d7732d;}.cls-2{fill:#fff;}.cls-3{fill:#020000;}.cls-4{fill:#e37222;}.cls-5{fill:#a7a8aa;}.cls-6{fill:#faed31;}.cls-7{fill:#75787b;}.cls-8{fill:none;}.cls-9{fill:#1d252c;}</style></defs><rect class="cls-8" width="587.81" height="114.01"/><g><g><path class="cls-7" d="M57.14,85.22l-2.84-7.19h-14.17l-2.69,7.19h-9.62l15.36-36.61h8.58l15.2,36.61h-9.83Zm-9.83-26.84l-4.65,12.57h9.2l-4.55-12.57Z"/><path class="cls-7" d="M86.28,86.2c-11.27,0-19.7-7.86-19.7-19.34s8.69-19.24,19.86-19.24c5.12,0,10.65,1.86,13.7,5.38l-6,6c-1.65-2.27-4.6-3.36-7.4-3.36-6.15,0-10.55,4.76-10.55,11.22s4.29,11.22,10.39,11.22c3.46,0,6.21-1.55,7.76-3.72l6.15,5.79c-3.21,3.72-8.07,6.05-14.22,6.05Z"/><path class="cls-7" d="M130.37,85.22l-2.84-7.19h-14.17l-2.69,7.19h-9.62l15.36-36.61h8.58l15.2,36.61h-9.83Zm-9.83-26.84l-4.65,12.57h9.2l-4.55-12.57Z"/><path class="cls-7" d="M157.13,85.22h-13.65V48.6h13.24c10.4,0,20.94,4.34,20.94,18.2,0,12.88-10.45,18.41-20.53,18.41Zm-.62-29.06h-4.4v21.41h4.19c6.31,0,12.15-2.58,12.15-10.76s-5.84-10.65-11.95-10.65Z"/><path class="cls-7" d="M183.2,85.22V48.6h24.62v7.5h-16.08v6.88h15.2v7.08h-15.2v7.6h17.01v7.55h-25.55Z"/><path class="cls-7" d="M248.04,85.22l.21-25.91h-.15l-9.51,25.91h-6.21l-9.26-25.91h-.15l.21,25.91h-8.33V48.6h12.57l8.33,23.48h.21l7.96-23.48h12.77v36.61h-8.64Z"/><path class="cls-7" d="M282.45,69.7v15.51h-8.84v-15.51l-13.76-21.1h10.71l7.81,13.55,7.81-13.55h10.34l-14.07,21.1Z"/></g><g><path class="cls-4" d="M37.73,44.17c-4.96,0-8.54-3.29-8.54-8.19s3.69-8.17,8.43-8.17c2.44,0,4.7,.81,5.99,2.06l-2.37,2.7c-.72-.83-1.98-1.45-3.49-1.45-2.64,0-4.57,2.06-4.57,4.85s1.69,4.9,4.74,4.9c.88,0,1.69-.13,2.35-.42v-2.83h-2.96v-3.03h6.41v8.23c-1.52,.79-3.6,1.34-5.99,1.34Z"/><path class="cls-4" d="M46.46,43.78v-15.55h10.45v3.18h-6.83v2.92h6.46v3.01h-6.46v3.23h7.22v3.21h-10.85Z"/><path class="cls-4" d="M59.46,43.78v-15.55h10.45v3.18h-6.83v2.92h6.46v3.01h-6.46v3.23h7.22v3.21h-10.85Z"/><path class="cls-4" d="M81.96,43.78l-5.77-7.16h-.04v7.16h-3.69v-15.55h3.69v6.32h.07l5.56-6.32h4.7l-6.7,7.16,7.09,8.39h-4.9Z"/><path class="cls-4" d="M100.84,32.27c-.64-.81-1.8-1.34-2.77-1.34s-2.17,.33-2.17,1.56c0,1.03,.92,1.36,2.39,1.82,2.11,.68,4.83,1.58,4.83,4.68,0,3.58-2.88,5.18-5.95,5.18-2.22,0-4.46-.81-5.82-2.24l2.46-2.5c.75,.94,2.13,1.65,3.36,1.65,1.14,0,2.15-.44,2.15-1.69,0-1.19-1.19-1.56-3.23-2.22-1.98-.64-3.97-1.65-3.97-4.46,0-3.45,3.12-4.87,6.02-4.87,1.76,0,3.73,.66,5.09,1.91l-2.39,2.52Z"/><path class="cls-4" d="M112.76,43.78c-4.94,0-8.3-2.88-8.3-7.97,0-4.72,3.62-7.99,8.43-7.99s8.37,3.25,8.37,7.93c0,2.37-1.19,4.19-2.31,5.05v.07l3.27-.07v2.99h-9.46Zm.13-12.56c-2.5,0-4.39,1.93-4.39,4.63s1.8,4.72,4.37,4.72,4.41-1.93,4.41-4.72-1.8-4.63-4.39-4.63Z"/><path class="cls-4" d="M130.23,44.19c-4.08,0-6.63-2.55-6.63-6.28v-9.68h3.73v9.38c0,1.67,.81,3.21,2.92,3.21s2.92-1.54,2.92-3.21v-9.38h3.75v9.68c0,3.73-2.63,6.28-6.7,6.28Z"/><path class="cls-4" d="M149.77,43.78l-1.21-3.05h-6.02l-1.14,3.05h-4.08l6.52-15.55h3.64l6.46,15.55h-4.17Zm-4.17-11.4l-1.98,5.34h3.91l-1.93-5.34Z"/><path class="cls-4" d="M160.7,43.78h-5.8v-15.55h5.62c4.41,0,8.89,1.84,8.89,7.73,0,5.47-4.44,7.82-8.72,7.82Zm-.26-12.34h-1.87v9.09h1.78c2.68,0,5.16-1.1,5.16-4.57s-2.48-4.52-5.07-4.52Z"/><path class="cls-4" d="M171.69,29.24c.95,0,1.73,.76,1.73,1.72s-.77,1.7-1.73,1.7-1.73-.75-1.73-1.7,.77-1.72,1.73-1.72Zm0,3.17c.8,0,1.45-.66,1.45-1.45s-.65-1.45-1.45-1.45-1.45,.65-1.45,1.45,.65,1.45,1.45,1.45Zm-.67-2.43h.68c.36,0,.72,.15,.72,.57,0,.28-.17,.46-.45,.52l.52,.85h-.42l-.46-.81h-.25v.81h-.35v-1.94Zm.63,.85c.2,0,.42-.05,.42-.29,0-.21-.21-.27-.39-.27h-.32v.55h.28Z"/></g></g><g><g><path class="cls-3" d="M560.9,68.11c0,10.56-13.98,19.11-31.22,19.11s-31.22-8.56-31.22-19.11,13.98-19.11,31.22-19.11,31.22,8.56,31.22,19.11"/><path class="cls-5" d="M529.68,49.49c-16.94,0-30.73,8.35-30.73,18.62s13.78,18.62,30.73,18.62,30.73-8.35,30.73-18.62-13.78-18.62-30.73-18.62m0,38.23c-8.43,0-16.36-2.01-22.34-5.67-6.05-3.7-9.38-8.65-9.38-13.94s3.33-10.24,9.38-13.94c5.97-3.66,13.91-5.67,22.34-5.67s16.36,2.01,22.34,5.67c6.05,3.71,9.38,8.66,9.38,13.94s-3.33,10.24-9.38,13.94c-5.97,3.66-13.91,5.67-22.34,5.67"/><path class="cls-2" d="M513.15,57.53c-4.25,0-7.34,2.91-7.34,6.92s3.12,6.92,7.27,6.92c1.34,0,3.34-.36,5.29-2.07h0v-4.86c0-.05-.18-.99-1.06-.99h-4.74v2.46h2.71v2.14l-.04,.02c-.66,.29-1.55,.39-2.17,.39-2.29,0-3.96-1.67-3.96-3.98,0-1.08,.35-2.07,.99-2.78,.74-.83,1.83-1.27,3.16-1.27,.98,0,2.06,.38,2.9,1.02l.02,.02,1.71-2.28-.02-.02c-1.54-1.16-2.95-1.65-4.73-1.65"/><path class="cls-2" d="M552.1,71.37c1.03,0,1.92-.31,2.7-.94h.02s-.05-.1-.05-.1c-.3-.61-.65-1.3-1-1.96v-.03s-.04,.02-.04,.02c-.32,.19-.77,.28-.97,.28-.49,0-.9-.14-1.37-.86l-1.18-1.98,.03-.04c.48-.61,.96-1.24,1.43-1.85l.18-.23c.46-.6,1.03-1.35,1.58-2.05h0v-.37h-3.47l-.2,.3c-.76,1.16-1.62,2.47-2.47,3.72l-.12,.18v-6.63s-.01-1.01-1.04-1.01h-2.15v13.33h3.19v-4.68l1.28,2.33c1.04,1.89,2,2.56,3.65,2.56"/><path class="cls-2" d="M534.79,64.87c.28-1.4,1.51-2.02,2.61-2.02,1.52,0,2.35,1.05,2.47,2.03l.02,.15h-5.13l.03-.16Zm4.88,3.37c-.54,.44-1.37,.63-2.13,.63-1.23,0-2.63-.6-2.8-1.93l-.02-.15h7.72l.27-.24c.01-.21,.02-.45,.02-.63,0-3.25-2.28-5.61-5.42-5.61s-5.54,2.32-5.54,5.52,2.33,5.58,5.54,5.58c1.81,0,3.31-.59,4.3-1.59l.02-.02-1.94-1.57h-.02Z"/><path class="cls-2" d="M522.75,64.87c.28-1.4,1.51-2.02,2.61-2.02,1.52,0,2.35,1.05,2.47,2.03l.02,.15h-5.13l.03-.16Zm4.88,3.37c-.54,.44-1.37,.63-2.13,.63-1.23,0-2.63-.6-2.8-1.93l-.02-.15h7.72l.27-.24c.01-.21,.02-.45,.02-.63,0-3.25-2.28-5.61-5.42-5.61s-5.54,2.32-5.54,5.52,2.33,5.58,5.54,5.58c1.81,0,3.31-.59,4.3-1.59l.02-.02-1.94-1.57h-.02Z"/><path class="cls-1" d="M518.5,77.15c-.1-.18-.25-.33-.43-.44-.18-.11-.41-.2-.66-.26-.25-.06-.54-.11-.86-.16-.2-.03-.39-.06-.54-.09-.15-.03-.29-.07-.39-.11-.1-.04-.18-.1-.23-.16-.05-.06-.08-.15-.08-.24s.01-.17,.04-.24c.03-.06,.08-.12,.15-.16,.08-.05,.18-.08,.31-.1,.13-.02,.29-.03,.5-.03,.14,0,.28,0,.42,.03,.14,.02,.28,.05,.41,.09,.13,.04,.25,.08,.37,.13,.05,.02,.08,.04,.12,.06h0s.18,.12,.31-.08l.5-.73h.01s-.02-.03-.02-.03c-.2-.14-.48-.26-.81-.36-.34-.1-.78-.16-1.31-.16-.37,0-.69,.03-.97,.09-.28,.06-.5,.15-.68,.28-.18,.13-.32,.29-.41,.49s-.14,.45-.14,.74,.05,.52,.14,.71c.09,.19,.23,.34,.41,.46,.18,.11,.4,.21,.67,.27,.26,.06,.57,.12,.92,.17,.21,.03,.38,.06,.53,.08,.15,.03,.28,.06,.38,.11,.1,.04,.18,.1,.23,.16,.05,.06,.08,.15,.08,.25s-.01,.2-.04,.28c-.03,.08-.09,.14-.17,.19-.09,.05-.21,.09-.36,.11-.16,.03-.37,.04-.62,.04-.33,0-.66-.05-.97-.14-.23-.07-.44-.17-.65-.29h0s-.24-.15-.38,.06l-.45,.65h-.01s.01,.02,.01,.02c.3,.22,.66,.39,1.08,.51,.42,.12,.9,.18,1.42,.18,.44,0,.81-.04,1.1-.11,.29-.07,.54-.18,.72-.33s.31-.32,.39-.53c.08-.2,.12-.44,.12-.71,0-.3-.05-.54-.15-.73"/><path class="cls-1" d="M531.42,74.2c-.23,0-.23,.18-.23,.18v2.92c0,.2-.02,.38-.05,.53-.03,.15-.1,.27-.18,.37-.09,.1-.21,.18-.37,.23-.16,.05-.37,.08-.63,.08s-.47-.03-.63-.08c-.16-.05-.28-.13-.37-.23-.09-.1-.15-.23-.18-.38-.03-.15-.05-.32-.05-.51v-2.92s0-.18-.22-.18h-.97v3.25c0,.25,.02,.5,.06,.75,.04,.25,.15,.48,.31,.68,.16,.2,.4,.37,.73,.49,.32,.12,.76,.19,1.31,.19s.99-.06,1.31-.19c.32-.13,.56-.29,.73-.49,.16-.2,.27-.43,.31-.68,.04-.25,.06-.5,.06-.75v-3.25h-.93Z"/><path class="cls-1" d="M536.65,75.6l.79,2.01h-1.58l.79-2.01Zm-1.42,3.64l.25-.64h2.34l.27,.69s.09,.17,.27,.17h1.04l-2.11-5.29h0s-1.19-.01-1.19-.01l-2.1,5.28v.03s.98,0,.98,0c0,0,.18,0,.26-.22"/><path class="cls-1" d="M544.5,77.58c-.04,.2-.13,.36-.25,.49-.12,.12-.29,.21-.51,.27-.22,.06-.51,.09-.87,.09h-.73v-3.15h.71c.37,0,.67,.03,.89,.08,.22,.05,.39,.14,.52,.26,.12,.12,.2,.28,.24,.47,.04,.2,.06,.45,.06,.74s-.02,.55-.07,.75m1.1-2.04c-.11-.34-.29-.61-.52-.81-.24-.2-.54-.34-.91-.42-.36-.08-.81-.12-1.33-.12h-1.61c-.28,0-.29,.18-.29,.18v5.09h1.86c.51,0,.96-.04,1.33-.12,.37-.08,.68-.23,.92-.43,.24-.2,.42-.48,.54-.81,.11-.34,.17-.77,.17-1.27s-.06-.95-.17-1.29"/><path class="cls-1" d="M522.94,78.5c-.3,0-.55-.04-.75-.11-.2-.08-.36-.19-.49-.33-.12-.14-.21-.32-.26-.52-.05-.2-.08-.44-.08-.69s.03-.48,.08-.68c.05-.2,.14-.37,.26-.52,.12-.14,.29-.25,.49-.33,.2-.08,.45-.12,.75-.12s.55,.04,.75,.12c.2,.08,.36,.19,.49,.33,.12,.14,.21,.31,.26,.52,.05,.2,.08,.43,.08,.68s-.03,.48-.08,.69c-.05,.2-.14,.38-.26,.52-.12,.14-.29,.25-.49,.33-.2,.08-.45,.11-.75,.11m3.01,1.54l-.87-1.23c.19-.2,.34-.44,.44-.72,.13-.34,.2-.77,.2-1.26s-.07-.91-.2-1.26c-.13-.34-.32-.63-.57-.84-.24-.22-.54-.37-.88-.47-.34-.1-.72-.15-1.14-.15s-.79,.05-1.14,.15c-.34,.1-.64,.25-.88,.47-.24,.22-.43,.5-.56,.84-.13,.34-.2,.77-.2,1.26s.07,.92,.2,1.26c.13,.34,.32,.63,.56,.84,.24,.22,.54,.38,.88,.48,.34,.1,.72,.15,1.14,.15s.8-.05,1.14-.15c0,0,.02,0,.03,0l.8,1.09h0s.16,.2,.37,.04l.68-.5Z"/><path class="cls-1" d="M547.15,74.37h-.37v.99h-.17v-.99h-.38v-.15h.91v.15Zm1.46,.99h-.17v-.96h0l-.38,.96h-.11l-.38-.96h0v.96h-.17v-1.14h.26l.36,.88,.36-.88h.25v1.14Z"/></g><g><polygon class="cls-6" points="455.23 76.99 466.77 76.99 466.77 86.23 455.23 86.23 452.36 83.52 452.36 79.71 455.23 76.99"/><path class="cls-9" d="M419.38,59.74l.22-.08c.14-.07,.31-.18,.51-.35,.2-.17,.4-.36,.6-.57,.2-.22,.37-.51,.52-.87,.15-.36,.22-.74,.22-1.14,0-1.05-.47-1.96-1.42-2.72-.95-.76-2.24-1.14-3.88-1.14h-7.12v14.58h7.54c1.93,0,5.93-.36,5.93-4.17,0-2.91-3.05-3.51-3.12-3.54m-5.64-3.46h1.74c.35,0,.63,.1,.85,.31,.22,.2,.33,.46,.33,.76s-.11,.55-.33,.76c-.22,.2-.5,.31-.85,.31h-1.74v-2.13Zm3.24,7.41c-.27,.26-.61,.38-1.02,.38h-2.22v-2.62h2.22c.41,0,.75,.13,1.02,.38,.27,.25,.41,.56,.41,.92s-.14,.67-.41,.93"/><path class="cls-9" d="M423.13,75.88l.22-.08c.14-.07,.31-.18,.51-.35,.2-.17,.4-.36,.6-.57,.2-.22,.37-.51,.52-.87,.15-.36,.22-.74,.22-1.14,0-1.05-.47-1.96-1.42-2.72-.95-.76-2.24-1.14-3.88-1.14h-7.1v14.58h7.52c1.93,0,5.93-.36,5.93-4.17,0-2.91-3.05-3.51-3.12-3.54m-5.62-3.46h1.72c.35,0,.63,.1,.85,.31,.22,.2,.33,.46,.33,.76s-.11,.56-.33,.76c-.22,.21-.5,.31-.85,.31h-1.72v-2.14Zm3.23,7.41c-.27,.26-.61,.38-1.02,.38h-2.21v-2.62h2.21c.41,0,.75,.13,1.02,.38,.27,.25,.41,.56,.41,.93s-.14,.67-.41,.93"/><polygon class="cls-9" points="434.57 63.91 427.52 63.91 427.52 61.62 433.28 61.62 433.28 58.28 427.52 58.28 427.52 56.41 434.59 56.41 434.59 52.86 422.81 52.86 422.81 67.45 434.57 67.45 434.57 63.91"/><polygon class="cls-9" points="446.63 52.86 446.63 56.41 450.49 56.41 450.49 67.45 455.17 67.45 455.17 56.41 459.03 56.41 459.03 52.86 446.63 52.86"/><path class="cls-9" d="M441.3,63.67c-.26,.22-.62,.34-1.07,.34s-.93-.13-1.43-.38c-.49-.25-.83-.45-.99-.61-.09-.09-.18-.16-.25-.23l-2.78,2.64,.18,.18c.17,.18,.43,.39,.78,.63,.35,.24,.76,.49,1.23,.73,.46,.24,1.04,.45,1.74,.63,.69,.17,1.41,.26,2.15,.26,1.84,0,3.31-.48,4.4-1.43,1.09-.96,1.64-2.11,1.64-3.46,0-.78-.16-1.46-.47-2.05-.32-.59-.71-1.03-1.18-1.33-.47-.3-.98-.57-1.53-.8-.5-.22-.97-.38-1.4-.49-.04-.01-.08-.02-.13-.03-.47-.11-.86-.25-1.17-.43-.31-.17-.47-.37-.47-.59,0-.27,.11-.49,.33-.67,.22-.18,.53-.26,.93-.26,.95,0,1.53,.43,1.83,.74l2.79-2.65-.05-.06c-.12-.16-.33-.33-.63-.53-.3-.2-.65-.4-1.04-.61-.4-.2-.91-.38-1.55-.52-.63-.15-1.3-.22-1.99-.22-1.75,0-3.16,.46-4.23,1.39-1.07,.93-1.6,2.01-1.6,3.26,0,.66,.12,1.26,.36,1.79,.24,.53,.54,.95,.91,1.26,.37,.31,.77,.59,1.23,.82,.38,.2,.76,.36,1.14,.5,.07,.03,.15,.05,.22,.08,.46,.15,.87,.28,1.24,.41,.37,.13,.67,.26,.91,.4,.24,.14,.36,.31,.36,.51,0,.32-.13,.59-.39,.81"/><path class="cls-9" d="M434.59,77.67c0,.96-.78,1.74-1.74,1.75-.97,0-1.76-.78-1.76-1.75v-8.66h-4.72v8.44c0,3.48,2.82,6.3,6.3,6.3h.3c3.48,0,6.3-2.82,6.3-6.3v-8.44h-4.68v8.66Z"/><polygon class="cls-9" points="447.33 73.97 444.24 69.01 439.51 69.01 444.97 78.39 444.97 83.59 449.69 83.59 449.69 78.39 455.15 69.01 450.42 69.01 447.33 73.97"/><path class="cls-9" d="M454.65,81.6c0,.32-.26,.57-.57,.57s-.57-.26-.57-.57,.26-.57,.57-.57,.57,.26,.57,.57"/><path class="cls-9" d="M455.24,73.19h-.34v-.11h.82v.11h-.34v1h-.14v-1Zm.69-.11h.19l.35,.87,.35-.87h.19v1.11h-.13v-.94l-.39,.94h-.05l-.39-.94v.94h-.12v-1.11Z"/></g><rect class="cls-9" x="481.41" y="52.76" width=".69" height="33.61"/></g></svg>